<svg width="11" height="18" viewBox="0 0 11 18" fill="none" xmlns="http://www.w3.org/2000/svg">
<path d="M0.287475 8.29764L8.2977 0.287559C8.48297 0.102146 8.73028 0 8.99399 0C9.25769 0 9.50501 0.102146 9.69028 0.287559L10.2802 0.87731C10.664 1.2616 10.664 1.88618 10.2802 2.26988L3.55379 8.99627L10.2876 15.7301C10.4729 15.9155 10.5752 16.1627 10.5752 16.4263C10.5752 16.6901 10.4729 16.9373 10.2876 17.1228L9.69774 17.7124C9.51233 17.8979 9.26516 18 9.00145 18C8.73775 18 8.49043 17.8979 8.30517 17.7124L0.287475 9.69504C0.101768 9.50904 -0.000230789 9.26071 0.000354767 8.99671C-0.000230789 8.73169 0.101768 8.48349 0.287475 8.29764Z" fill="#1A7ABE"/>
</svg>
