<svg width="100" height="100" viewBox="0 0 100 100" fill="none" xmlns="http://www.w3.org/2000/svg">
<g clip-path="url(#clip0)">
<path d="M88.5123 92.1265C88.79 92.3577 89.1264 92.4706 89.4614 92.4706C89.8871 92.4706 90.3097 92.2882 90.6035 91.935C91.1284 91.3048 91.0429 90.3687 90.412 89.8438L66.7341 70.1294C66.104 69.6045 65.1678 69.6899 64.6422 70.3209C64.118 70.9511 64.2035 71.8872 64.8337 72.4121L88.5123 92.1265Z" fill="#1A7ABE"/>
<path d="M10.5282 92.4698C10.8632 92.4698 11.2004 92.3576 11.4781 92.1265L35.1567 72.4114C35.7869 71.8872 35.8723 70.9503 35.3474 70.3201C34.8225 69.6899 33.8864 69.6045 33.2562 70.1294L9.57837 89.8438C8.94742 90.3687 8.86197 91.3048 9.38687 91.935C9.67984 92.2882 10.1033 92.4698 10.5282 92.4698Z" fill="#1A7ABE"/>
<path d="M28.2159 44.1078H59.4995C60.3196 44.1078 60.9842 43.4425 60.9842 42.6224C60.9842 41.8022 60.3196 41.1377 59.4995 41.1377H28.2159C27.3958 41.1377 26.7305 41.8022 26.7305 42.6224C26.7305 43.4425 27.3958 44.1078 28.2159 44.1078Z" fill="#1A7ABE"/>
<path d="M71.7744 49.762H28.2159C27.3958 49.762 26.7305 50.4272 26.7305 51.2474C26.7305 52.0676 27.3958 52.7321 28.2159 52.7321H71.7744C72.5953 52.7321 73.2599 52.0676 73.2599 51.2474C73.2599 50.4272 72.5946 49.762 71.7744 49.762Z" fill="#1A7ABE"/>
<path d="M28.2159 26.8585H49.9955C50.8157 26.8585 51.4802 26.1932 51.4802 25.3731C51.4802 24.5537 50.8157 23.8884 49.9955 23.8884H28.2159C27.3958 23.8884 26.7305 24.5537 26.7305 25.3731C26.7305 26.1932 27.3958 26.8585 28.2159 26.8585Z" fill="#1A7ABE"/>
<path d="M41.332 33.9981C41.332 34.8183 41.9973 35.4828 42.8175 35.4828H53.5597C54.3798 35.4828 55.0443 34.8183 55.0443 33.9981C55.0443 33.1779 54.3798 32.5127 53.5597 32.5127H42.8175C41.9973 32.5127 41.332 33.1779 41.332 33.9981Z" fill="#1A7ABE"/>
<path d="M28.2159 35.4828H37.8663C38.6865 35.4828 39.3518 34.8183 39.3518 33.9981C39.3518 33.1779 38.6865 32.5127 37.8663 32.5127H28.2159C27.3958 32.5127 26.7305 33.1779 26.7305 33.9981C26.7305 34.8183 27.3958 35.4828 28.2159 35.4828Z" fill="#1A7ABE"/>
<path d="M83.2797 12.146L75.3207 30.7175L68.2605 22.3099C67.7333 21.682 66.7972 21.6003 66.1685 22.1275C65.5406 22.6555 65.459 23.5924 65.9869 24.2203L74.5982 34.4749C74.8828 34.8137 75.3001 35.0052 75.735 35.0052C75.8067 35.0052 75.8792 34.9999 75.9524 34.9892C76.4621 34.9136 76.897 34.5795 77.0999 34.1049L86.0095 13.3156C86.333 12.5618 85.9836 11.689 85.2298 11.3655C84.476 11.0428 83.6032 11.3922 83.2797 12.146Z" fill="#1A7ABE"/>
<path d="M98.7114 34.8358L95.6223 32.264C97.1512 29.2412 98.0087 25.84 98.0087 22.2763C98.0087 18.2465 96.9162 14.2998 94.8509 10.8643C94.4275 10.1609 93.515 9.93426 92.8123 10.3569C92.1097 10.7796 91.8823 11.6921 92.305 12.3947C94.0933 15.3679 95.0386 18.7851 95.0386 22.2756C95.0386 31.4339 88.5284 39.3601 79.5578 41.1209C78.3379 41.3613 77.0844 41.4833 75.8331 41.4833C65.2428 41.4833 56.6269 32.8667 56.6269 22.2756C56.6269 11.686 65.2428 3.07009 75.8331 3.07009C77.0844 3.07009 78.3371 3.19216 79.5578 3.43249C83.0345 4.11532 86.2541 5.75411 88.8695 8.17339C89.4714 8.72958 90.4114 8.69296 90.9683 8.091C91.5253 7.48904 91.4879 6.5491 90.8859 5.99215C87.8662 3.19979 84.1469 1.30694 80.1315 0.518059C78.7224 0.241112 77.2766 0.0999679 75.8331 0.0999679C70.7985 0.0999679 66.1522 1.78759 62.4252 4.62496L62.162 4.40524C55.1125 -1.46711 44.8776 -1.46711 37.8258 4.40524L37.1582 4.96218H23.2498C16.4909 4.96218 10.9917 10.4599 10.9917 17.218V26.8479L0.944519 35.2127C0.914764 35.2249 0.88501 35.2371 0.855255 35.2516C0.333404 35.4958 0.000762939 36.0199 0.000762939 36.5959V77.4384C0.000762939 78.2585 0.665283 78.9231 1.48544 78.9231C2.3056 78.9231 2.97089 78.2585 2.97089 77.4384V39.7652L37.8265 68.7874C41.3521 71.7232 45.6734 73.1919 49.9947 73.1911C54.3159 73.1911 58.6372 71.7232 62.1613 68.7874L97.0184 39.7652V89.2014C97.0184 93.5189 93.5066 97.0307 89.1891 97.0307H10.7994C6.48193 97.0307 2.97012 93.5189 2.97012 89.2014V83.3786C2.97012 82.5585 2.30484 81.8939 1.48468 81.8939C0.665283 81.8939 0 82.5585 0 83.3786V89.2014C0 95.1561 4.84467 100.001 10.7994 100.001H89.1891C95.1439 100.001 99.9886 95.1561 99.9886 89.2014V36.6364C99.9886 36.6356 99.9886 36.6348 99.9886 36.6341C100.007 35.9146 99.7841 35.7292 98.7114 34.8358ZM57.7309 4.96218H42.2577C47.0665 2.31097 52.9236 2.31097 57.7309 4.96218ZM10.9917 30.7122V42.5789L3.86581 36.6455L10.9917 30.7122ZM60.2608 66.5055C54.3129 71.46 45.6772 71.46 39.727 66.5047L13.9618 45.0516V17.218C13.9618 12.0972 18.1282 7.93154 23.2498 7.93154H37.7007H37.706H58.9355C55.6458 11.8012 53.6575 16.8106 53.6575 22.2763C53.6575 34.5047 63.6055 44.4535 75.8331 44.4535C77.2766 44.4535 78.7231 44.3131 80.1308 44.0354C82.2266 43.6241 84.2041 42.9169 86.0283 41.9693V45.0508L60.2608 66.5055ZM88.9984 42.5781V40.1169C90.9775 38.6521 92.6979 36.8698 94.0887 34.8519C94.738 35.392 95.5238 36.0466 96.1838 36.5959L88.9984 42.5781Z" fill="#1A7ABE"/>
</g>
<defs>
<clipPath id="clip0">
<rect width="100" height="100" fill="white"/>
</clipPath>
</defs>
</svg>
