<svg width="17" height="18" viewBox="0 0 17 18" fill="none" xmlns="http://www.w3.org/2000/svg">
<path d="M16.7828 8.42145L15.2357 6.78507L9.04693 0.239555C8.90186 0.086168 8.70513 0 8.5 0C8.29487 0 8.09814 0.086168 7.95307 0.239555L1.76434 6.78507L0.217156 8.42145C0.0762403 8.57576 -0.00173332 8.78244 2.92438e-05 8.99697C0.00179181 9.21149 0.0831495 9.41671 0.22658 9.56841C0.37001 9.72011 0.564036 9.80615 0.766869 9.80802C0.969702 9.80988 1.16511 9.72741 1.31101 9.57837L1.53768 9.33864V17.1818C1.53768 17.3988 1.61918 17.6069 1.76426 17.7604C1.90933 17.9138 2.1061 18 2.31127 18H14.6887C14.8939 18 15.0907 17.9138 15.2357 17.7604C15.3808 17.6069 15.4623 17.3988 15.4623 17.1818V9.33864L15.689 9.57837C15.8349 9.72741 16.0303 9.80988 16.2331 9.80802C16.436 9.80615 16.63 9.72011 16.7734 9.56841C16.9168 9.41671 16.9982 9.21149 17 8.99697C17.0017 8.78244 16.9238 8.57576 16.7828 8.42145ZM13.9151 16.3636H3.08486V7.70226L8.5 1.97494L13.9151 7.70226V16.3636Z" fill="#899EAC"/>
</svg>
