<svg width="24" height="24" viewBox="0 0 24 24" fill="none" xmlns="http://www.w3.org/2000/svg">
<path d="M14.1867 10.2947C13.1596 10.2947 12.7009 10.8592 12.4442 11.2556V10.432H10.5098C10.5349 10.9772 10.5098 16.2521 10.5098 16.2521H12.4442V13.0006C12.4442 12.827 12.4553 12.6525 12.5075 12.5283C12.6477 12.1803 12.9657 11.8202 13.5003 11.8202C14.2003 11.8202 14.4801 12.3538 14.4801 13.1369V16.2507H16.4145H16.415V12.9131C16.4141 11.1265 15.4594 10.2947 14.1867 10.2947ZM12.4427 11.2759H12.4307C12.4345 11.2691 12.4403 11.2629 12.4427 11.2561V11.2759Z" fill="#899EAC"/>
<path d="M7.5033 10.4318H9.43772V16.252H7.5033V10.4318Z" fill="#899EAC"/>
<path d="M12 0C5.38323 0 0 5.38323 0 12C0 18.6163 5.38323 24 12 24C18.6163 24 24 18.6163 24 12C24 5.38323 18.6173 0 12 0ZM18.3635 17.4277C18.3635 17.9381 17.9401 18.3509 17.4166 18.3509H6.50173C5.9797 18.3509 5.55579 17.9381 5.55579 17.4277V6.38572C5.55579 5.87577 5.9797 5.4625 6.50173 5.4625H17.4166C17.9396 5.4625 18.3635 5.87626 18.3635 6.38572V17.4277Z" fill="#899EAC"/>
<path d="M8.4835 7.62604C7.82226 7.62604 7.38916 8.0601 7.38916 8.63144C7.38916 9.18972 7.8092 9.63683 8.45788 9.63683H8.47045C9.14522 9.63683 9.56527 9.18972 9.56527 8.63144C9.55222 8.06058 9.14571 7.62604 8.4835 7.62604Z" fill="#899EAC"/>
</svg>
