<svg width="18" height="30" viewBox="0 0 18 30" fill="none" xmlns="http://www.w3.org/2000/svg">
<path d="M0.666298 13.8294L14.0167 0.479264C14.3255 0.170243 14.7376 0 15.1772 0C15.6167 0 16.0289 0.170243 16.3376 0.479264L17.3208 1.46218C17.9605 2.10267 17.9605 3.14363 17.3208 3.78314L6.11016 14.9938L17.3332 26.2169C17.642 26.5259 17.8125 26.9378 17.8125 27.3771C17.8125 27.8168 17.642 28.2288 17.3332 28.5381L16.3501 29.5207C16.0411 29.8298 15.6291 30 15.1896 30C14.7501 30 14.3379 29.8298 14.0291 29.5207L0.666298 16.1584C0.356789 15.8484 0.18679 15.4345 0.187767 14.9945C0.18679 14.5528 0.356789 14.1392 0.666298 13.8294Z" fill="#1A7ABE"/>
</svg>
