<svg width="64" height="64" viewBox="0 0 64 64" fill="none" xmlns="http://www.w3.org/2000/svg">
<path d="M63.9832 30.9556C63.4463 14.1433 49.8563 0.553688 33.0444 0.01679C23.8965 -0.273449 15.338 3.20852 9.01297 9.73891C2.93232 16.0168 -0.262559 24.2931 0.0168969 33.0443C0.553345 49.8562 14.1434 63.4462 30.9552 63.9826C31.3052 63.9939 31.6521 63.9993 31.9998 63.9993C40.7402 63.9993 48.9038 60.5407 54.9867 54.2605C61.0673 47.9831 64.2626 39.7063 63.9832 30.9556ZM50.1461 49.5722C45.3441 54.5301 38.8995 57.2604 31.9998 57.2604C31.724 57.2604 31.4481 57.2559 31.17 57.2474C17.9017 56.8237 7.17628 46.0983 6.75215 32.8295C6.53155 25.9186 9.0534 19.3833 13.8536 14.4277C18.6556 9.46978 25.1001 6.73947 31.9998 6.73947C32.2757 6.73947 32.5515 6.74396 32.8297 6.7525C46.098 7.17617 56.8234 17.9015 57.2475 31.1703C57.4681 38.0813 54.9458 44.6166 50.1461 49.5722Z" fill="white"/>
<path d="M42.4956 30.1401L28.3054 19.9656C26.7917 18.8801 24.6846 19.962 24.6846 21.8247V42.1743C24.6846 44.037 26.7917 45.1189 28.3054 44.0334L42.4952 33.8584C43.7685 32.9459 43.7685 31.0531 42.4956 30.1401Z" fill="white"/>
</svg>
